# xmcd
#
# Track frame offsets: 
#        150
#        41485
#        66945
#        94040
#        123685
#        145635
#        171440
#        196459
#        226682
#        249700
#        274085
#        296217
#
# Disc length: 4381 seconds
#
# Revision: 3
# Processed by: cddbd v1.5.2PL0 Copyright (c) Steve Scherf et al.
# Submitted via: ExactAudioCopy v0.99pb4
#
DISCID=b6111b0c
DTITLE=Various Artist - Mijk van Dijk - Teamwork
DYEAR=1999
DGENRE=tech house
TTITLE0=Mijk van Dijk with Humate - Waterdrop
TTITLE1=Mijk van Dijk with Quazar - Hot In July
TTITLE2=Mijk van Dijk with Tobynation - Sneak Attack
TTITLE3=Mijk van Dijk with Johannes Talirz - Le Chic Flic
TTITLE4=Mijk van Dijk with Paul M. - Da Booty Is Ya Duty
TTITLE5=Mijk van Dijk with Tobynation - Kage-Raw
TTITLE6=Mijk van Dijk with Claude Young - Never Have It Cold
TTITLE7=Mijk van Dijk with Claude Young - The Church Of The Iron Fist
TTITLE8=Mijk van Dijk with Thomas Schumacher - Ride-In U
TTITLE9=Mijk van Dijk with Thomas Schumacher - Delivery
TTITLE10=Mijk van Dijk with Quazar - Bye Bye Berti
TTITLE11=Mijk van Dijk with Johannes Talirz - Sai Hakken
EXTD=1999 Superstition  Superstition 2099
EXTT0=
EXTT1=
EXTT2=
EXTT3=
EXTT4=
EXTT5=
EXTT6=
EXTT7=
EXTT8=
EXTT9=
EXTT10=
EXTT11=
PLAYORDER=
